<svg xmlns="http://www.w3.org/2000/svg" width="1200" height="520" viewBox="0 0 1200 520">

<defs>
  <linearGradient id="bg" x1="0" y1="0" x2="1" y2="1">
    <stop offset="0" stop-color="#60a5fa" stop-opacity="0.90"/>
    <stop offset="0.55" stop-color="#2dd4ff" stop-opacity="0.90"/>
    <stop offset="1" stop-color="#a855f7" stop-opacity="0.90"/>
  </linearGradient>
  <filter id="shadow" x="-20%" y="-20%" width="140%" height="140%">
    <feDropShadow dx="0" dy="18" stdDeviation="18" flood-color="rgba(0,0,0,.35)"/>
  </filter>
</defs>


<rect x="18" y="18" width="1164" height="484" rx="34" fill="url(#bg)" filter="url(#shadow)"/>
<rect x="60" y="56" width="1080" height="92" rx="24" fill="rgba(0,0,0,.20)" stroke="rgba(255,255,255,.22)"/>
<text x="92" y="112" font-size="44" font-family="system-ui,Segoe UI,Arial" fill="white" font-weight="900">Flexbox</text>
<text x="92" y="142" font-size="18" font-family="system-ui,Segoe UI,Arial" fill="rgba(255,255,255,.92)">CSS • Box Model &amp; Layout</text>

<rect x="80" y="190" width="1040" height="260" rx="26" fill="rgba(0,0,0,.18)" stroke="rgba(255,255,255,.22)"/>
<text x="110" y="230" font-size="18" font-family="ui-monospace,Consolas,monospace" fill="rgba(255,255,255,.92)" font-weight="700">display:flex;  gap:12px;  align-items:center;</text>
<rect x="130" y="270" width="280" height="120" rx="22" fill="rgba(255,255,255,.16)" stroke="rgba(255,255,255,.24)"/>
<rect x="460" y="270" width="280" height="120" rx="22" fill="rgba(255,255,255,.16)" stroke="rgba(255,255,255,.24)"/>
<rect x="790" y="270" width="280" height="120" rx="22" fill="rgba(255,255,255,.16)" stroke="rgba(255,255,255,.24)"/>
<text x="240" y="340" font-size="32" font-family="system-ui,Segoe UI,Arial" fill="white" font-weight="900">1</text>
<text x="570" y="340" font-size="32" font-family="system-ui,Segoe UI,Arial" fill="white" font-weight="900">2</text>
<text x="900" y="340" font-size="32" font-family="system-ui,Segoe UI,Arial" fill="white" font-weight="900">3</text>
<path d="M160 410 L1040 410" stroke="rgba(255,255,255,.55)" stroke-width="6" stroke-linecap="round"/>
<path d="M1040 410 L1018 392" stroke="rgba(255,255,255,.55)" stroke-width="6" stroke-linecap="round"/>
<path d="M1040 410 L1018 428" stroke="rgba(255,255,255,.55)" stroke-width="6" stroke-linecap="round"/>
<text x="160" y="448" font-size="16" font-family="system-ui,Segoe UI,Arial" fill="rgba(255,255,255,.9)">Main axis (row direction)</text>

</svg>