<svg xmlns="http://www.w3.org/2000/svg" width="1200" height="520" viewBox="0 0 1200 520">

<defs>
  <linearGradient id="bg" x1="0" y1="0" x2="1" y2="1">
    <stop offset="0" stop-color="#60a5fa" stop-opacity="0.90"/>
    <stop offset="0.55" stop-color="#2dd4ff" stop-opacity="0.90"/>
    <stop offset="1" stop-color="#a855f7" stop-opacity="0.90"/>
  </linearGradient>
  <filter id="shadow" x="-20%" y="-20%" width="140%" height="140%">
    <feDropShadow dx="0" dy="18" stdDeviation="18" flood-color="rgba(0,0,0,.35)"/>
  </filter>
</defs>


<rect x="18" y="18" width="1164" height="484" rx="34" fill="url(#bg)" filter="url(#shadow)"/>
<rect x="60" y="56" width="1080" height="92" rx="24" fill="rgba(0,0,0,.20)" stroke="rgba(255,255,255,.22)"/>
<text x="92" y="112" font-size="44" font-family="system-ui,Segoe UI,Arial" fill="white" font-weight="900">Media Queries</text>
<text x="92" y="142" font-size="18" font-family="system-ui,Segoe UI,Arial" fill="rgba(255,255,255,.92)">CSS • Responsive &amp; Effects</text>

<rect x="80" y="190" width="1040" height="260" rx="26" fill="rgba(0,0,0,.18)" stroke="rgba(255,255,255,.22)"/>
<text x="110" y="230" font-size="18" font-family="ui-monospace,Consolas,monospace" fill="rgba(255,255,255,.92)" font-weight="700">@media applies styles based on screen width</text>

<rect x="140" y="260" width="230" height="170" rx="26" fill="rgba(255,255,255,.13)" stroke="rgba(255,255,255,.22)"/>
<rect x="170" y="290" width="170" height="110" rx="18" fill="rgba(0,0,0,.22)" stroke="rgba(255,255,255,.18)"/>
<text x="205" y="420" font-size="16" font-family="system-ui,Segoe UI,Arial" fill="rgba(255,255,255,.9)" font-weight="800">Mobile</text>
<text x="185" y="442" font-size="14" font-family="ui-monospace,Consolas,monospace" fill="rgba(255,255,255,.85)">@media (max-width: 600px)</text>

<rect x="485" y="260" width="230" height="170" rx="26" fill="rgba(255,255,255,.13)" stroke="rgba(255,255,255,.22)"/>
<rect x="505" y="300" width="190" height="90" rx="18" fill="rgba(0,0,0,.22)" stroke="rgba(255,255,255,.18)"/>
<text x="555" y="420" font-size="16" font-family="system-ui,Segoe UI,Arial" fill="rgba(255,255,255,.9)" font-weight="800">Tablet</text>
<text x="500" y="442" font-size="14" font-family="ui-monospace,Consolas,monospace" fill="rgba(255,255,255,.85)">@media (max-width: 900px)</text>

<rect x="830" y="260" width="230" height="170" rx="26" fill="rgba(255,255,255,.13)" stroke="rgba(255,255,255,.22)"/>
<rect x="855" y="295" width="180" height="100" rx="18" fill="rgba(0,0,0,.22)" stroke="rgba(255,255,255,.18)"/>
<text x="905" y="420" font-size="16" font-family="system-ui,Segoe UI,Arial" fill="rgba(255,255,255,.9)" font-weight="800">Desktop</text>
<text x="855" y="442" font-size="14" font-family="ui-monospace,Consolas,monospace" fill="rgba(255,255,255,.85)">(default styles)</text>

</svg>